<svg xmlns="http://www.w3.org/2000/svg" width="1600" height="900" viewBox="0 0 1600 900" role="img" aria-label="Данные работают. Личное остаётся личным."><rect x="0" y="0" width="1600" height="900" rx="0" fill="#111b17" stroke="none" stroke-width="1" opacity="1"/><line x1="64" y1="90" x2="1536" y2="90" stroke="#334138" stroke-width="1"/><rect x="65" y="34" width="12" height="12" rx="0" fill="#111b17" stroke="#c0f0c5" stroke-width="1.8" opacity="1"/><rect x="82" y="34" width="12" height="12" rx="0" fill="#c0f0c5" stroke="#c0f0c5" stroke-width="1.8" opacity="1"/><rect x="65" y="51" width="12" height="12" rx="0" fill="#111b17" stroke="#c0f0c5" stroke-width="1.8" opacity="1"/><rect x="82" y="51" width="12" height="12" rx="0" fill="#111b17" stroke="#c0f0c5" stroke-width="1.8" opacity="1"/><text x="111" y="62" font-size="31" font-family="Segoe UI, Arial, DejaVu Sans, sans-serif" font-weight="600" font-style="normal" text-anchor="start" fill="#f0f0df">СЕЙФ</text><text x="286" y="58" font-size="16" font-family="Consolas, DejaVu Sans Mono, monospace" font-weight="400" font-style="normal" text-anchor="start" fill="#93a397">АРХИТЕКТУРА · ЭКСПЕРИМЕНТЫ · ОЦЕНКА</text><text x="1536" y="58" font-size="16" font-family="Consolas, DejaVu Sans Mono, monospace" font-weight="400" font-style="normal" text-anchor="end" fill="#93a397">23.09.2026</text><rect x="64" y="160" width="439" height="36" rx="0" fill="#17231d" stroke="#c0f0c5" stroke-width="1" opacity="1"/><text x="79" y="185" font-size="16" font-family="Consolas, DejaVu Sans Mono, monospace" font-weight="400" font-style="normal" text-anchor="start" fill="#c0f0c5">МОДУЛЬ ЗАЩИТЫ ПЕРСОНАЛЬНЫХ ДАННЫХ</text><text x="64" y="302" font-size="82" font-family="Segoe UI, Arial, DejaVu Sans, sans-serif" font-weight="400" font-style="normal" text-anchor="start" fill="#f0f0df" data-max-width="900">Данные работают.</text><text x="64" y="406" font-size="83" font-family="Georgia, DejaVu Serif, serif" font-weight="400" font-style="italic" text-anchor="start" fill="#c0f0c5" data-max-width="900">Личное остаётся</text><text x="64" y="503" font-size="83" font-family="Georgia, DejaVu Serif, serif" font-weight="400" font-style="italic" text-anchor="start" fill="#c0f0c5" data-max-width="900">личным.</text><text x="68" y="628" font-size="28" font-family="Segoe UI, Arial, DejaVu Sans, sans-serif" font-weight="400" font-style="normal" text-anchor="start" fill="#93a397">Локальная защита перед LLM.</text><text x="68" y="671" font-size="28" font-family="Segoe UI, Arial, DejaVu Sans, sans-serif" font-weight="400" font-style="normal" text-anchor="start" fill="#93a397">Обратимость. Контекст. Проверяемые результаты.</text><rect x="1030" y="182" width="506" height="548" rx="0" fill="#17231d" stroke="#334138" stroke-width="1" opacity="1"/><circle cx="1052" cy="206" r="1" fill="#334138" stroke="none" stroke-width="1"/><circle cx="1052" cy="234" r="1" fill="#334138" stroke="none" stroke-width="1"/><circle cx="1052" cy="262" r="1" fill="#334138" stroke="none" stroke-width="1"/><circle cx="1052" cy="290" r="1" fill="#334138" stroke="none" stroke-width="1"/><circle cx="1052" cy="318" r="1" fill="#334138" stroke="none" stroke-width="1"/><circle cx="1052" cy="346" r="1" fill="#334138" stroke="none" stroke-width="1"/><circle cx="1052" cy="374" r="1" fill="#334138" stroke="none" stroke-width="1"/><circle cx="1052" cy="402" r="1" fill="#334138" stroke="none" stroke-width="1"/><circle cx="1052" cy="430" r="1" fill="#334138" stroke="none" stroke-width="1"/><circle cx="1052" cy="458" r="1" fill="#334138" stroke="none" stroke-width="1"/><circle cx="1052" cy="486" r="1" fill="#334138" stroke="none" stroke-width="1"/><circle cx="1052" cy="514" r="1" fill="#334138" stroke="none" stroke-width="1"/><circle cx="1052" cy="542" r="1" fill="#334138" stroke="none" stroke-width="1"/><circle cx="1052" cy="570" r="1" fill="#334138" stroke="none" stroke-width="1"/><circle cx="1052" cy="598" r="1" fill="#334138" stroke="none" stroke-width="1"/><circle cx="1052" cy="626" r="1" fill="#334138" stroke="none" stroke-width="1"/><circle cx="1052" cy="654" r="1" fill="#334138" stroke="none" stroke-width="1"/><circle cx="1052" cy="682" r="1" fill="#334138" stroke="none" stroke-width="1"/><circle cx="1052" cy="710" r="1" fill="#334138" stroke="none" stroke-width="1"/><circle cx="1080" cy="206" r="1" fill="#334138" stroke="none" stroke-width="1"/><circle cx="1080" cy="234" r="1" fill="#334138" stroke="none" stroke-width="1"/><circle cx="1080" cy="262" r="1" fill="#334138" stroke="none" stroke-width="1"/><circle cx="1080" cy="290" r="1" fill="#334138" stroke="none" stroke-width="1"/><circle cx="1080" cy="318" r="1" fill="#334138" stroke="none" stroke-width="1"/><circle cx="1080" cy="346" r="1" fill="#334138" stroke="none" stroke-width="1"/><circle cx="1080" cy="374" r="1" fill="#334138" stroke="none" stroke-width="1"/><circle cx="1080" cy="402" r="1" fill="#334138" stroke="none" stroke-width="1"/><circle cx="1080" cy="430" r="1" fill="#334138" stroke="none" stroke-width="1"/><circle cx="1080" cy="458" r="1" fill="#334138" stroke="none" stroke-width="1"/><circle cx="1080" cy="486" r="1" fill="#334138" stroke="none" stroke-width="1"/><circle cx="1080" cy="514" r="1" fill="#334138" stroke="none" stroke-width="1"/><circle cx="1080" cy="542" r="1" fill="#334138" stroke="none" stroke-width="1"/><circle cx="1080" cy="570" r="1" fill="#334138" stroke="none" stroke-width="1"/><circle cx="1080" cy="598" r="1" fill="#334138" stroke="none" stroke-width="1"/><circle cx="1080" cy="626" r="1" fill="#334138" stroke="none" stroke-width="1"/><circle cx="1080" cy="654" r="1" fill="#334138" stroke="none" stroke-width="1"/><circle cx="1080" cy="682" r="1" fill="#334138" stroke="none" stroke-width="1"/><circle cx="1080" cy="710" r="1" fill="#334138" stroke="none" stroke-width="1"/><circle cx="1108" cy="206" r="1" fill="#334138" stroke="none" stroke-width="1"/><circle cx="1108" cy="234" r="1" fill="#334138" stroke="none" stroke-width="1"/><circle cx="1108" cy="262" r="1" fill="#334138" stroke="none" stroke-width="1"/><circle cx="1108" cy="290" r="1" fill="#334138" stroke="none" stroke-width="1"/><circle cx="1108" cy="318" r="1" fill="#334138" stroke="none" stroke-width="1"/><circle cx="1108" cy="346" r="1" fill="#334138" stroke="none" stroke-width="1"/><circle cx="1108" cy="374" r="1" fill="#334138" stroke="none" stroke-width="1"/><circle cx="1108" cy="402" r="1" fill="#334138" stroke="none" stroke-width="1"/><circle cx="1108" cy="430" r="1" fill="#334138" stroke="none" stroke-width="1"/><circle cx="1108" cy="458" r="1" fill="#334138" stroke="none" stroke-width="1"/><circle cx="1108" cy="486" r="1" fill="#334138" stroke="none" stroke-width="1"/><circle cx="1108" cy="514" r="1" fill="#334138" stroke="none" stroke-width="1"/><circle cx="1108" cy="542" r="1" fill="#334138" stroke="none" stroke-width="1"/><circle cx="1108" cy="570" r="1" fill="#334138" stroke="none" stroke-width="1"/><circle cx="1108" cy="598" r="1" fill="#334138" stroke="none" stroke-width="1"/><circle cx="1108" cy="626" r="1" fill="#334138" stroke="none" stroke-width="1"/><circle cx="1108" cy="654" r="1" fill="#334138" stroke="none" stroke-width="1"/><circle cx="1108" cy="682" r="1" fill="#334138" stroke="none" stroke-width="1"/><circle cx="1108" cy="710" r="1" fill="#334138" stroke="none" stroke-width="1"/><circle cx="1136" cy="206" r="1" fill="#334138" stroke="none" stroke-width="1"/><circle cx="1136" cy="234" r="1" fill="#334138" stroke="none" stroke-width="1"/><circle cx="1136" cy="262" r="1" fill="#334138" stroke="none" stroke-width="1"/><circle cx="1136" cy="290" r="1" fill="#334138" stroke="none" stroke-width="1"/><circle cx="1136" cy="318" r="1" fill="#334138" stroke="none" stroke-width="1"/><circle cx="1136" cy="346" r="1" fill="#334138" stroke="none" stroke-width="1"/><circle cx="1136" cy="374" r="1" fill="#334138" stroke="none" stroke-width="1"/><circle cx="1136" cy="402" r="1" fill="#334138" stroke="none" stroke-width="1"/><circle cx="1136" cy="430" r="1" fill="#334138" stroke="none" stroke-width="1"/><circle cx="1136" cy="458" r="1" fill="#334138" stroke="none" stroke-width="1"/><circle cx="1136" cy="486" r="1" fill="#334138" stroke="none" stroke-width="1"/><circle cx="1136" cy="514" r="1" fill="#334138" stroke="none" stroke-width="1"/><circle cx="1136" cy="542" r="1" fill="#334138" stroke="none" stroke-width="1"/><circle cx="1136" cy="570" r="1" fill="#334138" stroke="none" stroke-width="1"/><circle cx="1136" cy="598" r="1" fill="#334138" stroke="none" stroke-width="1"/><circle cx="1136" cy="626" r="1" fill="#334138" stroke="none" stroke-width="1"/><circle cx="1136" cy="654" r="1" fill="#334138" stroke="none" stroke-width="1"/><circle cx="1136" cy="682" r="1" fill="#334138" stroke="none" stroke-width="1"/><circle cx="1136" cy="710" r="1" fill="#334138" stroke="none" stroke-width="1"/><circle cx="1164" cy="206" r="1" fill="#334138" stroke="none" stroke-width="1"/><circle cx="1164" cy="234" r="1" fill="#334138" stroke="none" stroke-width="1"/><circle cx="1164" cy="262" r="1" fill="#334138" stroke="none" stroke-width="1"/><circle cx="1164" cy="290" r="1" fill="#334138" stroke="none" stroke-width="1"/><circle cx="1164" cy="318" r="1" fill="#334138" stroke="none" stroke-width="1"/><circle cx="1164" cy="346" r="1" fill="#334138" stroke="none" stroke-width="1"/><circle cx="1164" cy="374" r="1" fill="#334138" stroke="none" stroke-width="1"/><circle cx="1164" cy="402" r="1" fill="#334138" stroke="none" stroke-width="1"/><circle cx="1164" cy="430" r="1" fill="#334138" stroke="none" stroke-width="1"/><circle cx="1164" cy="458" r="1" fill="#334138" stroke="none" stroke-width="1"/><circle cx="1164" cy="486" r="1" fill="#334138" stroke="none" stroke-width="1"/><circle cx="1164" cy="514" r="1" fill="#334138" stroke="none" stroke-width="1"/><circle cx="1164" cy="542" r="1" fill="#334138" stroke="none" stroke-width="1"/><circle cx="1164" cy="570" r="1" fill="#334138" stroke="none" stroke-width="1"/><circle cx="1164" cy="598" r="1" fill="#334138" stroke="none" stroke-width="1"/><circle cx="1164" cy="626" r="1" fill="#334138" stroke="none" stroke-width="1"/><circle cx="1164" cy="654" r="1" fill="#334138" stroke="none" stroke-width="1"/><circle cx="1164" cy="682" r="1" fill="#334138" stroke="none" stroke-width="1"/><circle cx="1164" cy="710" r="1" fill="#334138" stroke="none" stroke-width="1"/><circle cx="1192" cy="206" r="1" fill="#334138" stroke="none" stroke-width="1"/><circle cx="1192" cy="234" r="1" fill="#334138" stroke="none" stroke-width="1"/><circle cx="1192" cy="262" r="1" fill="#334138" stroke="none" stroke-width="1"/><circle cx="1192" cy="290" r="1" fill="#334138" stroke="none" stroke-width="1"/><circle cx="1192" cy="318" r="1" fill="#334138" stroke="none" stroke-width="1"/><circle cx="1192" cy="346" r="1" fill="#334138" stroke="none" stroke-width="1"/><circle cx="1192" cy="374" r="1" fill="#334138" stroke="none" stroke-width="1"/><circle cx="1192" cy="402" r="1" fill="#334138" stroke="none" stroke-width="1"/><circle cx="1192" cy="430" r="1" fill="#334138" stroke="none" stroke-width="1"/><circle cx="1192" cy="458" r="1" fill="#334138" stroke="none" stroke-width="1"/><circle cx="1192" cy="486" r="1" fill="#334138" stroke="none" stroke-width="1"/><circle cx="1192" cy="514" r="1" fill="#334138" stroke="none" stroke-width="1"/><circle cx="1192" cy="542" r="1" fill="#334138" stroke="none" stroke-width="1"/><circle cx="1192" cy="570" r="1" fill="#334138" stroke="none" stroke-width="1"/><circle cx="1192" cy="598" r="1" fill="#334138" stroke="none" stroke-width="1"/><circle cx="1192" cy="626" r="1" fill="#334138" stroke="none" stroke-width="1"/><circle cx="1192" cy="654" r="1" fill="#334138" stroke="none" stroke-width="1"/><circle cx="1192" cy="682" r="1" fill="#334138" stroke="none" stroke-width="1"/><circle cx="1192" cy="710" r="1" fill="#334138" stroke="none" stroke-width="1"/><circle cx="1220" cy="206" r="1" fill="#334138" stroke="none" stroke-width="1"/><circle cx="1220" cy="234" r="1" fill="#334138" stroke="none" stroke-width="1"/><circle cx="1220" cy="262" r="1" fill="#334138" stroke="none" stroke-width="1"/><circle cx="1220" cy="290" r="1" fill="#334138" stroke="none" stroke-width="1"/><circle cx="1220" cy="318" r="1" fill="#334138" stroke="none" stroke-width="1"/><circle cx="1220" cy="346" r="1" fill="#334138" stroke="none" stroke-width="1"/><circle cx="1220" cy="374" r="1" fill="#334138" stroke="none" stroke-width="1"/><circle cx="1220" cy="402" r="1" fill="#334138" stroke="none" stroke-width="1"/><circle cx="1220" cy="430" r="1" fill="#334138" stroke="none" stroke-width="1"/><circle cx="1220" cy="458" r="1" fill="#334138" stroke="none" stroke-width="1"/><circle cx="1220" cy="486" r="1" fill="#334138" stroke="none" stroke-width="1"/><circle cx="1220" cy="514" r="1" fill="#334138" stroke="none" stroke-width="1"/><circle cx="1220" cy="542" r="1" fill="#334138" stroke="none" stroke-width="1"/><circle cx="1220" cy="570" r="1" fill="#334138" stroke="none" stroke-width="1"/><circle cx="1220" cy="598" r="1" fill="#334138" stroke="none" stroke-width="1"/><circle cx="1220" cy="626" r="1" fill="#334138" stroke="none" stroke-width="1"/><circle cx="1220" cy="654" r="1" fill="#334138" stroke="none" stroke-width="1"/><circle cx="1220" cy="682" r="1" fill="#334138" stroke="none" stroke-width="1"/><circle cx="1220" cy="710" r="1" fill="#334138" stroke="none" stroke-width="1"/><circle cx="1248" cy="206" r="1" fill="#334138" stroke="none" stroke-width="1"/><circle cx="1248" cy="234" r="1" fill="#334138" stroke="none" stroke-width="1"/><circle cx="1248" cy="262" r="1" fill="#334138" stroke="none" stroke-width="1"/><circle cx="1248" cy="290" r="1" fill="#334138" stroke="none" stroke-width="1"/><circle cx="1248" cy="318" r="1" fill="#334138" stroke="none" stroke-width="1"/><circle cx="1248" cy="346" r="1" fill="#334138" stroke="none" stroke-width="1"/><circle cx="1248" cy="374" r="1" fill="#334138" stroke="none" stroke-width="1"/><circle cx="1248" cy="402" r="1" fill="#334138" stroke="none" stroke-width="1"/><circle cx="1248" cy="430" r="1" fill="#334138" stroke="none" stroke-width="1"/><circle cx="1248" cy="458" r="1" fill="#334138" stroke="none" stroke-width="1"/><circle cx="1248" cy="486" r="1" fill="#334138" stroke="none" stroke-width="1"/><circle cx="1248" cy="514" r="1" fill="#334138" stroke="none" stroke-width="1"/><circle cx="1248" cy="542" r="1" fill="#334138" stroke="none" stroke-width="1"/><circle cx="1248" cy="570" r="1" fill="#334138" stroke="none" stroke-width="1"/><circle cx="1248" cy="598" r="1" fill="#334138" stroke="none" stroke-width="1"/><circle cx="1248" cy="626" r="1" fill="#334138" stroke="none" stroke-width="1"/><circle cx="1248" cy="654" r="1" fill="#334138" stroke="none" stroke-width="1"/><circle cx="1248" cy="682" r="1" fill="#334138" stroke="none" stroke-width="1"/><circle cx="1248" cy="710" r="1" fill="#334138" stroke="none" stroke-width="1"/><circle cx="1276" cy="206" r="1" fill="#334138" stroke="none" stroke-width="1"/><circle cx="1276" cy="234" r="1" fill="#334138" stroke="none" stroke-width="1"/><circle cx="1276" cy="262" r="1" fill="#334138" stroke="none" stroke-width="1"/><circle cx="1276" cy="290" r="1" fill="#334138" stroke="none" stroke-width="1"/><circle cx="1276" cy="318" r="1" fill="#334138" stroke="none" stroke-width="1"/><circle cx="1276" cy="346" r="1" fill="#334138" stroke="none" stroke-width="1"/><circle cx="1276" cy="374" r="1" fill="#334138" stroke="none" stroke-width="1"/><circle cx="1276" cy="402" r="1" fill="#334138" stroke="none" stroke-width="1"/><circle cx="1276" cy="430" r="1" fill="#334138" stroke="none" stroke-width="1"/><circle cx="1276" cy="458" r="1" fill="#334138" stroke="none" stroke-width="1"/><circle cx="1276" cy="486" r="1" fill="#334138" stroke="none" stroke-width="1"/><circle cx="1276" cy="514" r="1" fill="#334138" stroke="none" stroke-width="1"/><circle cx="1276" cy="542" r="1" fill="#334138" stroke="none" stroke-width="1"/><circle cx="1276" cy="570" r="1" fill="#334138" stroke="none" stroke-width="1"/><circle cx="1276" cy="598" r="1" fill="#334138" stroke="none" stroke-width="1"/><circle cx="1276" cy="626" r="1" fill="#334138" stroke="none" stroke-width="1"/><circle cx="1276" cy="654" r="1" fill="#334138" stroke="none" stroke-width="1"/><circle cx="1276" cy="682" r="1" fill="#334138" stroke="none" stroke-width="1"/><circle cx="1276" cy="710" r="1" fill="#334138" stroke="none" stroke-width="1"/><circle cx="1304" cy="206" r="1" fill="#334138" stroke="none" stroke-width="1"/><circle cx="1304" cy="234" r="1" fill="#334138" stroke="none" stroke-width="1"/><circle cx="1304" cy="262" r="1" fill="#334138" stroke="none" stroke-width="1"/><circle cx="1304" cy="290" r="1" fill="#334138" stroke="none" stroke-width="1"/><circle cx="1304" cy="318" r="1" fill="#334138" stroke="none" stroke-width="1"/><circle cx="1304" cy="346" r="1" fill="#334138" stroke="none" stroke-width="1"/><circle cx="1304" cy="374" r="1" fill="#334138" stroke="none" stroke-width="1"/><circle cx="1304" cy="402" r="1" fill="#334138" stroke="none" stroke-width="1"/><circle cx="1304" cy="430" r="1" fill="#334138" stroke="none" stroke-width="1"/><circle cx="1304" cy="458" r="1" fill="#334138" stroke="none" stroke-width="1"/><circle cx="1304" cy="486" r="1" fill="#334138" stroke="none" stroke-width="1"/><circle cx="1304" cy="514" r="1" fill="#334138" stroke="none" stroke-width="1"/><circle cx="1304" cy="542" r="1" fill="#334138" stroke="none" stroke-width="1"/><circle cx="1304" cy="570" r="1" fill="#334138" stroke="none" stroke-width="1"/><circle cx="1304" cy="598" r="1" fill="#334138" stroke="none" stroke-width="1"/><circle cx="1304" cy="626" r="1" fill="#334138" stroke="none" stroke-width="1"/><circle cx="1304" cy="654" r="1" fill="#334138" stroke="none" stroke-width="1"/><circle cx="1304" cy="682" r="1" fill="#334138" stroke="none" stroke-width="1"/><circle cx="1304" cy="710" r="1" fill="#334138" stroke="none" stroke-width="1"/><circle cx="1332" cy="206" r="1" fill="#334138" stroke="none" stroke-width="1"/><circle cx="1332" cy="234" r="1" fill="#334138" stroke="none" stroke-width="1"/><circle cx="1332" cy="262" r="1" fill="#334138" stroke="none" stroke-width="1"/><circle cx="1332" cy="290" r="1" fill="#334138" stroke="none" stroke-width="1"/><circle cx="1332" cy="318" r="1" fill="#334138" stroke="none" stroke-width="1"/><circle cx="1332" cy="346" r="1" fill="#334138" stroke="none" stroke-width="1"/><circle cx="1332" cy="374" r="1" fill="#334138" stroke="none" stroke-width="1"/><circle cx="1332" cy="402" r="1" fill="#334138" stroke="none" stroke-width="1"/><circle cx="1332" cy="430" r="1" fill="#334138" stroke="none" stroke-width="1"/><circle cx="1332" cy="458" r="1" fill="#334138" stroke="none" stroke-width="1"/><circle cx="1332" cy="486" r="1" fill="#334138" stroke="none" stroke-width="1"/><circle cx="1332" cy="514" r="1" fill="#334138" stroke="none" stroke-width="1"/><circle cx="1332" cy="542" r="1" fill="#334138" stroke="none" stroke-width="1"/><circle cx="1332" cy="570" r="1" fill="#334138" stroke="none" stroke-width="1"/><circle cx="1332" cy="598" r="1" fill="#334138" stroke="none" stroke-width="1"/><circle cx="1332" cy="626" r="1" fill="#334138" stroke="none" stroke-width="1"/><circle cx="1332" cy="654" r="1" fill="#334138" stroke="none" stroke-width="1"/><circle cx="1332" cy="682" r="1" fill="#334138" stroke="none" stroke-width="1"/><circle cx="1332" cy="710" r="1" fill="#334138" stroke="none" stroke-width="1"/><circle cx="1360" cy="206" r="1" fill="#334138" stroke="none" stroke-width="1"/><circle cx="1360" cy="234" r="1" fill="#334138" stroke="none" stroke-width="1"/><circle cx="1360" cy="262" r="1" fill="#334138" stroke="none" stroke-width="1"/><circle cx="1360" cy="290" r="1" fill="#334138" stroke="none" stroke-width="1"/><circle cx="1360" cy="318" r="1" fill="#334138" stroke="none" stroke-width="1"/><circle cx="1360" cy="346" r="1" fill="#334138" stroke="none" stroke-width="1"/><circle cx="1360" cy="374" r="1" fill="#334138" stroke="none" stroke-width="1"/><circle cx="1360" cy="402" r="1" fill="#334138" stroke="none" stroke-width="1"/><circle cx="1360" cy="430" r="1" fill="#334138" stroke="none" stroke-width="1"/><circle cx="1360" cy="458" r="1" fill="#334138" stroke="none" stroke-width="1"/><circle cx="1360" cy="486" r="1" fill="#334138" stroke="none" stroke-width="1"/><circle cx="1360" cy="514" r="1" fill="#334138" stroke="none" stroke-width="1"/><circle cx="1360" cy="542" r="1" fill="#334138" stroke="none" stroke-width="1"/><circle cx="1360" cy="570" r="1" fill="#334138" stroke="none" stroke-width="1"/><circle cx="1360" cy="598" r="1" fill="#334138" stroke="none" stroke-width="1"/><circle cx="1360" cy="626" r="1" fill="#334138" stroke="none" stroke-width="1"/><circle cx="1360" cy="654" r="1" fill="#334138" stroke="none" stroke-width="1"/><circle cx="1360" cy="682" r="1" fill="#334138" stroke="none" stroke-width="1"/><circle cx="1360" cy="710" r="1" fill="#334138" stroke="none" stroke-width="1"/><circle cx="1388" cy="206" r="1" fill="#334138" stroke="none" stroke-width="1"/><circle cx="1388" cy="234" r="1" fill="#334138" stroke="none" stroke-width="1"/><circle cx="1388" cy="262" r="1" fill="#334138" stroke="none" stroke-width="1"/><circle cx="1388" cy="290" r="1" fill="#334138" stroke="none" stroke-width="1"/><circle cx="1388" cy="318" r="1" fill="#334138" stroke="none" stroke-width="1"/><circle cx="1388" cy="346" r="1" fill="#334138" stroke="none" stroke-width="1"/><circle cx="1388" cy="374" r="1" fill="#334138" stroke="none" stroke-width="1"/><circle cx="1388" cy="402" r="1" fill="#334138" stroke="none" stroke-width="1"/><circle cx="1388" cy="430" r="1" fill="#334138" stroke="none" stroke-width="1"/><circle cx="1388" cy="458" r="1" fill="#334138" stroke="none" stroke-width="1"/><circle cx="1388" cy="486" r="1" fill="#334138" stroke="none" stroke-width="1"/><circle cx="1388" cy="514" r="1" fill="#334138" stroke="none" stroke-width="1"/><circle cx="1388" cy="542" r="1" fill="#334138" stroke="none" stroke-width="1"/><circle cx="1388" cy="570" r="1" fill="#334138" stroke="none" stroke-width="1"/><circle cx="1388" cy="598" r="1" fill="#334138" stroke="none" stroke-width="1"/><circle cx="1388" cy="626" r="1" fill="#334138" stroke="none" stroke-width="1"/><circle cx="1388" cy="654" r="1" fill="#334138" stroke="none" stroke-width="1"/><circle cx="1388" cy="682" r="1" fill="#334138" stroke="none" stroke-width="1"/><circle cx="1388" cy="710" r="1" fill="#334138" stroke="none" stroke-width="1"/><circle cx="1416" cy="206" r="1" fill="#334138" stroke="none" stroke-width="1"/><circle cx="1416" cy="234" r="1" fill="#334138" stroke="none" stroke-width="1"/><circle cx="1416" cy="262" r="1" fill="#334138" stroke="none" stroke-width="1"/><circle cx="1416" cy="290" r="1" fill="#334138" stroke="none" stroke-width="1"/><circle cx="1416" cy="318" r="1" fill="#334138" stroke="none" stroke-width="1"/><circle cx="1416" cy="346" r="1" fill="#334138" stroke="none" stroke-width="1"/><circle cx="1416" cy="374" r="1" fill="#334138" stroke="none" stroke-width="1"/><circle cx="1416" cy="402" r="1" fill="#334138" stroke="none" stroke-width="1"/><circle cx="1416" cy="430" r="1" fill="#334138" stroke="none" stroke-width="1"/><circle cx="1416" cy="458" r="1" fill="#334138" stroke="none" stroke-width="1"/><circle cx="1416" cy="486" r="1" fill="#334138" stroke="none" stroke-width="1"/><circle cx="1416" cy="514" r="1" fill="#334138" stroke="none" stroke-width="1"/><circle cx="1416" cy="542" r="1" fill="#334138" stroke="none" stroke-width="1"/><circle cx="1416" cy="570" r="1" fill="#334138" stroke="none" stroke-width="1"/><circle cx="1416" cy="598" r="1" fill="#334138" stroke="none" stroke-width="1"/><circle cx="1416" cy="626" r="1" fill="#334138" stroke="none" stroke-width="1"/><circle cx="1416" cy="654" r="1" fill="#334138" stroke="none" stroke-width="1"/><circle cx="1416" cy="682" r="1" fill="#334138" stroke="none" stroke-width="1"/><circle cx="1416" cy="710" r="1" fill="#334138" stroke="none" stroke-width="1"/><circle cx="1444" cy="206" r="1" fill="#334138" stroke="none" stroke-width="1"/><circle cx="1444" cy="234" r="1" fill="#334138" stroke="none" stroke-width="1"/><circle cx="1444" cy="262" r="1" fill="#334138" stroke="none" stroke-width="1"/><circle cx="1444" cy="290" r="1" fill="#334138" stroke="none" stroke-width="1"/><circle cx="1444" cy="318" r="1" fill="#334138" stroke="none" stroke-width="1"/><circle cx="1444" cy="346" r="1" fill="#334138" stroke="none" stroke-width="1"/><circle cx="1444" cy="374" r="1" fill="#334138" stroke="none" stroke-width="1"/><circle cx="1444" cy="402" r="1" fill="#334138" stroke="none" stroke-width="1"/><circle cx="1444" cy="430" r="1" fill="#334138" stroke="none" stroke-width="1"/><circle cx="1444" cy="458" r="1" fill="#334138" stroke="none" stroke-width="1"/><circle cx="1444" cy="486" r="1" fill="#334138" stroke="none" stroke-width="1"/><circle cx="1444" cy="514" r="1" fill="#334138" stroke="none" stroke-width="1"/><circle cx="1444" cy="542" r="1" fill="#334138" stroke="none" stroke-width="1"/><circle cx="1444" cy="570" r="1" fill="#334138" stroke="none" stroke-width="1"/><circle cx="1444" cy="598" r="1" fill="#334138" stroke="none" stroke-width="1"/><circle cx="1444" cy="626" r="1" fill="#334138" stroke="none" stroke-width="1"/><circle cx="1444" cy="654" r="1" fill="#334138" stroke="none" stroke-width="1"/><circle cx="1444" cy="682" r="1" fill="#334138" stroke="none" stroke-width="1"/><circle cx="1444" cy="710" r="1" fill="#334138" stroke="none" stroke-width="1"/><circle cx="1472" cy="206" r="1" fill="#334138" stroke="none" stroke-width="1"/><circle cx="1472" cy="234" r="1" fill="#334138" stroke="none" stroke-width="1"/><circle cx="1472" cy="262" r="1" fill="#334138" stroke="none" stroke-width="1"/><circle cx="1472" cy="290" r="1" fill="#334138" stroke="none" stroke-width="1"/><circle cx="1472" cy="318" r="1" fill="#334138" stroke="none" stroke-width="1"/><circle cx="1472" cy="346" r="1" fill="#334138" stroke="none" stroke-width="1"/><circle cx="1472" cy="374" r="1" fill="#334138" stroke="none" stroke-width="1"/><circle cx="1472" cy="402" r="1" fill="#334138" stroke="none" stroke-width="1"/><circle cx="1472" cy="430" r="1" fill="#334138" stroke="none" stroke-width="1"/><circle cx="1472" cy="458" r="1" fill="#334138" stroke="none" stroke-width="1"/><circle cx="1472" cy="486" r="1" fill="#334138" stroke="none" stroke-width="1"/><circle cx="1472" cy="514" r="1" fill="#334138" stroke="none" stroke-width="1"/><circle cx="1472" cy="542" r="1" fill="#334138" stroke="none" stroke-width="1"/><circle cx="1472" cy="570" r="1" fill="#334138" stroke="none" stroke-width="1"/><circle cx="1472" cy="598" r="1" fill="#334138" stroke="none" stroke-width="1"/><circle cx="1472" cy="626" r="1" fill="#334138" stroke="none" stroke-width="1"/><circle cx="1472" cy="654" r="1" fill="#334138" stroke="none" stroke-width="1"/><circle cx="1472" cy="682" r="1" fill="#334138" stroke="none" stroke-width="1"/><circle cx="1472" cy="710" r="1" fill="#334138" stroke="none" stroke-width="1"/><circle cx="1500" cy="206" r="1" fill="#334138" stroke="none" stroke-width="1"/><circle cx="1500" cy="234" r="1" fill="#334138" stroke="none" stroke-width="1"/><circle cx="1500" cy="262" r="1" fill="#334138" stroke="none" stroke-width="1"/><circle cx="1500" cy="290" r="1" fill="#334138" stroke="none" stroke-width="1"/><circle cx="1500" cy="318" r="1" fill="#334138" stroke="none" stroke-width="1"/><circle cx="1500" cy="346" r="1" fill="#334138" stroke="none" stroke-width="1"/><circle cx="1500" cy="374" r="1" fill="#334138" stroke="none" stroke-width="1"/><circle cx="1500" cy="402" r="1" fill="#334138" stroke="none" stroke-width="1"/><circle cx="1500" cy="430" r="1" fill="#334138" stroke="none" stroke-width="1"/><circle cx="1500" cy="458" r="1" fill="#334138" stroke="none" stroke-width="1"/><circle cx="1500" cy="486" r="1" fill="#334138" stroke="none" stroke-width="1"/><circle cx="1500" cy="514" r="1" fill="#334138" stroke="none" stroke-width="1"/><circle cx="1500" cy="542" r="1" fill="#334138" stroke="none" stroke-width="1"/><circle cx="1500" cy="570" r="1" fill="#334138" stroke="none" stroke-width="1"/><circle cx="1500" cy="598" r="1" fill="#334138" stroke="none" stroke-width="1"/><circle cx="1500" cy="626" r="1" fill="#334138" stroke="none" stroke-width="1"/><circle cx="1500" cy="654" r="1" fill="#334138" stroke="none" stroke-width="1"/><circle cx="1500" cy="682" r="1" fill="#334138" stroke="none" stroke-width="1"/><circle cx="1500" cy="710" r="1" fill="#334138" stroke="none" stroke-width="1"/><circle cx="1528" cy="206" r="1" fill="#334138" stroke="none" stroke-width="1"/><circle cx="1528" cy="234" r="1" fill="#334138" stroke="none" stroke-width="1"/><circle cx="1528" cy="262" r="1" fill="#334138" stroke="none" stroke-width="1"/><circle cx="1528" cy="290" r="1" fill="#334138" stroke="none" stroke-width="1"/><circle cx="1528" cy="318" r="1" fill="#334138" stroke="none" stroke-width="1"/><circle cx="1528" cy="346" r="1" fill="#334138" stroke="none" stroke-width="1"/><circle cx="1528" cy="374" r="1" fill="#334138" stroke="none" stroke-width="1"/><circle cx="1528" cy="402" r="1" fill="#334138" stroke="none" stroke-width="1"/><circle cx="1528" cy="430" r="1" fill="#334138" stroke="none" stroke-width="1"/><circle cx="1528" cy="458" r="1" fill="#334138" stroke="none" stroke-width="1"/><circle cx="1528" cy="486" r="1" fill="#334138" stroke="none" stroke-width="1"/><circle cx="1528" cy="514" r="1" fill="#334138" stroke="none" stroke-width="1"/><circle cx="1528" cy="542" r="1" fill="#334138" stroke="none" stroke-width="1"/><circle cx="1528" cy="570" r="1" fill="#334138" stroke="none" stroke-width="1"/><circle cx="1528" cy="598" r="1" fill="#334138" stroke="none" stroke-width="1"/><circle cx="1528" cy="626" r="1" fill="#334138" stroke="none" stroke-width="1"/><circle cx="1528" cy="654" r="1" fill="#334138" stroke="none" stroke-width="1"/><circle cx="1528" cy="682" r="1" fill="#334138" stroke="none" stroke-width="1"/><circle cx="1528" cy="710" r="1" fill="#334138" stroke="none" stroke-width="1"/><text x="1060" y="221" font-size="16" font-family="Consolas, DejaVu Sans Mono, monospace" font-weight="400" font-style="normal" text-anchor="start" fill="#93a397">PRIVATE DATA FLOW</text><rect x="1056" y="280" width="130" height="42" rx="0" fill="#1c2a22" stroke="#334138" stroke-width="1" opacity="1"/><text x="1121" y="307" font-size="17" font-family="Consolas, DejaVu Sans Mono, monospace" font-weight="400" font-style="normal" text-anchor="middle" fill="#eab291">PERSON</text><line x1="1121" y1="322" x2="1121" y2="368" stroke="#334138" stroke-width="2"/><line x1="1121" y1="368" x2="1280" y2="368" stroke="#334138" stroke-width="2"/><rect x="1220" y="280" width="130" height="42" rx="0" fill="#1c2a22" stroke="#334138" stroke-width="1" opacity="1"/><text x="1285" y="307" font-size="17" font-family="Consolas, DejaVu Sans Mono, monospace" font-weight="400" font-style="normal" text-anchor="middle" fill="#eab291">PASSPORT</text><line x1="1285" y1="322" x2="1285" y2="368" stroke="#334138" stroke-width="2"/><line x1="1285" y1="368" x2="1280" y2="368" stroke="#334138" stroke-width="2"/><rect x="1384" y="280" width="130" height="42" rx="0" fill="#1c2a22" stroke="#334138" stroke-width="1" opacity="1"/><text x="1449" y="307" font-size="17" font-family="Consolas, DejaVu Sans Mono, monospace" font-weight="400" font-style="normal" text-anchor="middle" fill="#eab291">EMAIL</text><line x1="1449" y1="322" x2="1449" y2="368" stroke="#334138" stroke-width="2"/><line x1="1449" y1="368" x2="1280" y2="368" stroke="#334138" stroke-width="2"/><line x1="1280" y1="368" x2="1280" y2="399" stroke="#c0f0c5" stroke-width="2"/><rect x="1180" y="399" width="208" height="167" rx="0" fill="#304b36" stroke="#6f9271" stroke-width="2" opacity="1"/><rect x="1193" y="412" width="182" height="141" rx="0" fill="#253c2b" stroke="#506e51" stroke-width="2" opacity="1"/><circle cx="1284" cy="480" r="43" fill="#1c2a22" stroke="#c0f0c5" stroke-width="2"/><line x1="1255" y1="480" x2="1313" y2="480" stroke="#c0f0c5" stroke-width="3"/><line x1="1284" y1="451" x2="1284" y2="509" stroke="#c0f0c5" stroke-width="3"/><line x1="1263" y1="459" x2="1305" y2="501" stroke="#c0f0c5" stroke-width="3"/><line x1="1284" y1="566" x2="1284" y2="624" stroke="#c0f0c5" stroke-width="2"/><rect x="1124" y="624" width="320" height="45" rx="0" fill="#111b17" stroke="#c0f0c5" stroke-width="1" opacity="1"/><text x="1284" y="654" font-size="23" font-family="Consolas, DejaVu Sans Mono, monospace" font-weight="400" font-style="normal" text-anchor="middle" fill="#c0f0c5">⟦PD:PERSON:…⟧</text><line x1="64" y1="830" x2="1536" y2="830" stroke="#334138" stroke-width="1"/><text x="64" y="866" font-size="15" font-family="Segoe UI, Arial, DejaVu Sans, sans-serif" font-weight="400" font-style="normal" text-anchor="start" fill="#93a397" data-max-width="1350">Срез исходников: 15eea67 · experiment/rubert-tensorrt · существующий web-стиль</text><text x="1536" y="866" font-size="16" font-family="Consolas, DejaVu Sans Mono, monospace" font-weight="400" font-style="normal" text-anchor="end" fill="#93a397">01 / 16</text></svg>